{
	"asset":{
		"version":"2.0",
		"generator":"Maxon Cinema 4D 2024.5.1 (#200000219)"
	},
	"scenes":[{
		"nodes":[0]
	}],
	"nodes":[{
		"name":"ALL PRISM",
		"translation":[-0.3969154953956604,
		3.6362504959106447,
		0.4529792368412018],
		"rotation":[0.0,
		0.0,
		0.0,
		-1.0],
		"scale":[1.0,
		1.0,
		1.0],
		"children":[1,
		2,
		3,
		4]
	},
	{
		"name":"LENTES",
		"translation":[-1.1907464265823365,
		1.385626196861267,
		1.3589377403259278],
		"rotation":[0.0,
		-0.3826834261417389,
		0.0,
		0.9238795042037964],
		"scale":[1.0,
		1.0,
		1.0],
		"children":[5,
		6]
	},
	{
		"name":"PUNTA",
		"mesh":0,
		"translation":[0.4059600830078125,
		-2.777247667312622,
		-0.45992761850357058],
		"rotation":[0.09705240279436112,
		0.01744835264980793,
		0.0887274295091629,
		0.991162896156311],
		"scale":[1.0,
		1.0,
		1.0]
	},
	{
		"name":"BORDE PRISMA",
		"mesh":1,
		"translation":[0.3969154953956604,
		-0.2727636396884918,
		-0.4529792368412018],
		"rotation":[0.0,
		0.0,
		0.0,
		-1.0],
		"scale":[1.0,
		1.0,
		1.0]
	},
	{
		"name":"PRISMA",
		"translation":[0.3969154953956604,
		-0.2727636396884918,
		-0.4529792368412018],
		"rotation":[0.0,
		0.0,
		0.0,
		-1.0],
		"scale":[1.0,
		1.0,
		1.0],
		"children":[7]
	},
	{
		"name":"GRUPO LENTE DERECHO",
		"translation":[1.6951088905334473,
		0.019223596900701524,
		0.0028609384316951038],
		"rotation":[0.0,
		0.0,
		0.0,
		-1.0],
		"scale":[1.0,
		1.0,
		1.0],
		"children":[8,
		9,
		10,
		11]
	},
	{
		"name":"GRUPO LENTE IZQUIERDO",
		"translation":[-1.404856562614441,
		0.019223596900701524,
		0.0028609384316951038],
		"rotation":[0.0,
		0.0,
		0.0,
		-1.0],
		"scale":[1.0,
		1.0,
		1.0],
		"children":[12,
		13,
		14,
		15]
	},
	{
		"name":"PRISMA",
		"mesh":2
	},
	{
		"name":"AGUJERO LENTE",
		"mesh":3,
		"translation":[-0.17769257724285127,
		-0.02253400906920433,
		0.02288750745356083],
		"rotation":[4.006141056317128e-16,
		-4.006141056317128e-16,
		-0.7071067690849304,
		0.7071067690849304],
		"scale":[1.0,
		1.0,
		1.0]
	},
	{
		"name":"LINEA",
		"mesh":4,
		"translation":[-0.4155450761318207,
		0.08714158833026886,
		-0.005721876863390207],
		"rotation":[0.0,
		-0.3826834261417389,
		0.0,
		-0.9238795042037964],
		"scale":[1.0,
		1.0,
		1.0]
	},
	{
		"name":"LINEA DENTRO",
		"mesh":5,
		"translation":[0.057669151574373248,
		-0.05885249376296997,
		-0.005721876863390207],
		"rotation":[2.394360177469546e-16,
		-5.134722196585041e-16,
		-0.4226182699203491,
		0.9063078165054321],
		"scale":[1.0,
		1.0,
		1.0]
	},
	{
		"name":"BASE LENTES",
		"mesh":6,
		"translation":[-0.29311037063598635,
		-0.038447193801403049,
		-0.005721876863390207],
		"rotation":[0.0,
		-1.0,
		0.0,
		-5.053215392444312e-16],
		"scale":[1.0,
		1.0,
		1.0]
	},
	{
		"name":"AGUJERO LENTE",
		"mesh":7,
		"translation":[0.09775770455598831,
		-0.0769834816455841,
		0.02288750745356083],
		"rotation":[4.006141056317128e-16,
		-4.006141056317128e-16,
		-0.7071067690849304,
		0.7071067690849304],
		"scale":[1.0,
		1.0,
		1.0]
	},
	{
		"name":"LINEA",
		"mesh":8,
		"translation":[-0.09262052178382874,
		0.08714158833026886,
		-0.005721876863390207],
		"rotation":[0.0,
		-0.3826834261417389,
		0.0,
		-0.9238795042037964],
		"scale":[1.0,
		1.0,
		1.0]
	},
	{
		"name":"LINEA DENTRO",
		"mesh":9,
		"translation":[0.3805936872959137,
		-0.05885249376296997,
		-0.005721876863390207],
		"rotation":[2.394360177469546e-16,
		-5.134722196585041e-16,
		-0.4226182699203491,
		0.9063078165054321],
		"scale":[1.0,
		1.0,
		1.0]
	},
	{
		"name":"BASE LENTES",
		"mesh":10,
		"translation":[-0.29311037063598635,
		-0.038447193801403049,
		-0.005721876863390207],
		"rotation":[0.0,
		-5.665538686387998e-16,
		0.0,
		1.0],
		"scale":[1.0,
		1.0,
		1.0]
	}],
	"meshes":[{
		"name":"PUNTA",
		"primitives":[{
			"attributes":{
				"POSITION":1,
				"NORMAL":2,
				"TEXCOORD_0":3
			},
			"indices":0,
			"material":0
		}]
	},
	{
		"name":"BORDE PRISMA",
		"primitives":[{
			"attributes":{
				"POSITION":5,
				"NORMAL":6,
				"TEXCOORD_0":7
			},
			"indices":4,
			"material":1
		}]
	},
	{
		"name":"PRISMA",
		"primitives":[{
			"attributes":{
				"POSITION":9,
				"NORMAL":10,
				"TEXCOORD_0":11
			},
			"indices":8,
			"material":1
		}]
	},
	{
		"name":"AGUJERO LENTE",
		"primitives":[{
			"attributes":{
				"POSITION":13,
				"NORMAL":14,
				"TEXCOORD_0":15
			},
			"indices":12,
			"material":0
		}]
	},
	{
		"name":"LINEA",
		"primitives":[{
			"attributes":{
				"POSITION":17,
				"NORMAL":18,
				"TEXCOORD_0":19
			},
			"indices":16,
			"material":0
		}]
	},
	{
		"name":"LINEA DENTRO",
		"primitives":[{
			"attributes":{
				"POSITION":21,
				"NORMAL":22,
				"TEXCOORD_0":23
			},
			"indices":20,
			"material":2
		}]
	},
	{
		"name":"BASE LENTES",
		"primitives":[{
			"attributes":{
				"POSITION":25,
				"NORMAL":26,
				"TEXCOORD_0":27
			},
			"indices":24,
			"material":2
		}]
	},
	{
		"name":"AGUJERO LENTE",
		"primitives":[{
			"attributes":{
				"POSITION":29,
				"NORMAL":30,
				"TEXCOORD_0":31
			},
			"indices":28,
			"material":0
		}]
	},
	{
		"name":"LINEA",
		"primitives":[{
			"attributes":{
				"POSITION":33,
				"NORMAL":34,
				"TEXCOORD_0":35
			},
			"indices":32,
			"material":0
		}]
	},
	{
		"name":"LINEA DENTRO",
		"primitives":[{
			"attributes":{
				"POSITION":37,
				"NORMAL":38,
				"TEXCOORD_0":39
			},
			"indices":36,
			"material":2
		}]
	},
	{
		"name":"BASE LENTES",
		"primitives":[{
			"attributes":{
				"POSITION":41,
				"NORMAL":42,
				"TEXCOORD_0":43
			},
			"indices":40,
			"material":2
		}]
	}],
	"accessors":[{
		"bufferView":0,
		"type":"SCALAR",
		"componentType":5123,
		"count":138,
		"byteOffset":0,
		"min":[0],
		"max":[137]
	},
	{
		"bufferView":1,
		"type":"VEC3",
		"componentType":5126,
		"count":138,
		"byteOffset":0,
		"min":[-0.5618076324462891,
		-0.48428720235824587,
		-0.7635447978973389],
		"max":[0.7635447978973389,
		0.619440495967865,
		0.5618076324462891]
	},
	{
		"bufferView":1,
		"type":"VEC3",
		"componentType":5126,
		"count":138,
		"byteOffset":12,
		"min":[-0.7245780825614929,
		-0.6660211086273193,
		-0.7245780825614929],
		"max":[1.0,
		0.9592569470405579,
		0.7245780825614929]
	},
	{
		"bufferView":1,
		"type":"VEC2",
		"componentType":5126,
		"count":138,
		"byteOffset":24,
		"min":[0.0,
		0.0],
		"max":[1.0,
		1.0]
	},
	{
		"bufferView":2,
		"type":"SCALAR",
		"componentType":5123,
		"count":1920,
		"byteOffset":0,
		"min":[0],
		"max":[1919]
	},
	{
		"bufferView":3,
		"type":"VEC3",
		"componentType":5126,
		"count":1920,
		"byteOffset":0,
		"min":[-2.3916420936584474,
		-1.5512982606887818,
		-2.3916420936584474],
		"max":[2.3916420936584474,
		3.3242125511169435,
		2.3916420936584474]
	},
	{
		"bufferView":3,
		"type":"VEC3",
		"componentType":5126,
		"count":1920,
		"byteOffset":12,
		"min":[-0.9415768384933472,
		-1.0,
		-0.9424264430999756],
		"max":[0.9431443214416504,
		1.0,
		0.9424264430999756]
	},
	{
		"bufferView":3,
		"type":"VEC2",
		"componentType":5126,
		"count":1920,
		"byteOffset":24,
		"min":[-4.72037935256958,
		-9.723670959472657],
		"max":[2.7610678672790529,
		3.698159694671631]
	},
	{
		"bufferView":4,
		"type":"SCALAR",
		"componentType":5123,
		"count":372,
		"byteOffset":0,
		"min":[0],
		"max":[371]
	},
	{
		"bufferView":5,
		"type":"VEC3",
		"componentType":5126,
		"count":372,
		"byteOffset":0,
		"min":[-2.3363800048828127,
		-1.5935782194137574,
		-2.314622402191162],
		"max":[2.3584537506103517,
		3.3522984981536867,
		2.313570499420166]
	},
	{
		"bufferView":5,
		"type":"VEC3",
		"componentType":5126,
		"count":372,
		"byteOffset":12,
		"min":[-0.9803878664970398,
		-0.9999858140945435,
		-0.9621246457099915],
		"max":[0.9638907313346863,
		0.9999982118606567,
		0.973177969455719]
	},
	{
		"bufferView":5,
		"type":"VEC2",
		"componentType":5126,
		"count":372,
		"byteOffset":24,
		"min":[0.053333334624767306,
		0.053333334624767306],
		"max":[0.9466666579246521,
		0.9466665983200073]
	},
	{
		"bufferView":6,
		"type":"SCALAR",
		"componentType":5123,
		"count":48,
		"byteOffset":0,
		"min":[0],
		"max":[47]
	},
	{
		"bufferView":7,
		"type":"VEC3",
		"componentType":5126,
		"count":48,
		"byteOffset":0,
		"min":[-0.4882318377494812,
		-0.5789028406143189,
		-0.05757076293230057],
		"max":[0.4882318377494812,
		0.7985408902168274,
		0.0]
	},
	{
		"bufferView":7,
		"type":"VEC3",
		"componentType":5126,
		"count":48,
		"byteOffset":12,
		"min":[-0.9999797344207764,
		-0.6237304210662842,
		-1.0],
		"max":[1.0,
		0.8863033056259155,
		1.0]
	},
	{
		"bufferView":7,
		"type":"VEC2",
		"componentType":5126,
		"count":48,
		"byteOffset":24,
		"min":[0.0,
		0.0],
		"max":[1.0,
		1.0]
	},
	{
		"bufferView":8,
		"type":"SCALAR",
		"componentType":5123,
		"count":1140,
		"byteOffset":0,
		"min":[0],
		"max":[1139]
	},
	{
		"bufferView":9,
		"type":"VEC3",
		"componentType":5126,
		"count":1140,
		"byteOffset":0,
		"min":[-0.494550883769989,
		-0.5537610650062561,
		-0.494550883769989],
		"max":[0.26000940799713137,
		0.275984525680542,
		0.26000940799713137]
	},
	{
		"bufferView":9,
		"type":"VEC3",
		"componentType":5126,
		"count":1140,
		"byteOffset":12,
		"min":[-0.7071068286895752,
		-1.0,
		-0.7071068286895752],
		"max":[0.7071068286895752,
		1.0,
		0.7071068286895752]
	},
	{
		"bufferView":9,
		"type":"VEC2",
		"componentType":5126,
		"count":1140,
		"byteOffset":24,
		"min":[0.0,
		0.0],
		"max":[1.0,
		1.0]
	},
	{
		"bufferView":10,
		"type":"SCALAR",
		"componentType":5123,
		"count":408,
		"byteOffset":0,
		"min":[0],
		"max":[407]
	},
	{
		"bufferView":11,
		"type":"VEC3",
		"componentType":5126,
		"count":408,
		"byteOffset":0,
		"min":[-0.061844758689403537,
		-0.2479591965675354,
		-0.041238363832235339],
		"max":[0.061844758689403537,
		0.2479591965675354,
		0.041238363832235339]
	},
	{
		"bufferView":11,
		"type":"VEC3",
		"componentType":5126,
		"count":408,
		"byteOffset":12,
		"min":[-1.0,
		-0.9978627562522888,
		-1.0],
		"max":[1.0,
		0.9978627562522888,
		1.0]
	},
	{
		"bufferView":11,
		"type":"VEC2",
		"componentType":5126,
		"count":408,
		"byteOffset":24,
		"min":[0.0,
		0.0],
		"max":[1.0,
		1.0]
	},
	{
		"bufferView":12,
		"type":"SCALAR",
		"componentType":5123,
		"count":168,
		"byteOffset":0,
		"min":[0],
		"max":[167]
	},
	{
		"bufferView":13,
		"type":"VEC3",
		"componentType":5126,
		"count":168,
		"byteOffset":0,
		"min":[-1.0596327781677247,
		-0.5983316898345947,
		-0.02679755538702011],
		"max":[1.0596327781677247,
		0.5983316898345947,
		0.02679755538702011]
	},
	{
		"bufferView":13,
		"type":"VEC3",
		"componentType":5126,
		"count":168,
		"byteOffset":12,
		"min":[-0.8922794461250305,
		-1.0,
		-1.0],
		"max":[1.0,
		1.0,
		1.0]
	},
	{
		"bufferView":13,
		"type":"VEC2",
		"componentType":5126,
		"count":168,
		"byteOffset":24,
		"min":[0.0,
		0.0],
		"max":[1.0,
		1.0]
	},
	{
		"bufferView":14,
		"type":"SCALAR",
		"componentType":5123,
		"count":48,
		"byteOffset":0,
		"min":[0],
		"max":[47]
	},
	{
		"bufferView":15,
		"type":"VEC3",
		"componentType":5126,
		"count":48,
		"byteOffset":0,
		"min":[-0.4269157946109772,
		-0.5453031063079834,
		-0.05757076293230057],
		"max":[0.4269157946109772,
		0.5453031063079834,
		0.0]
	},
	{
		"bufferView":15,
		"type":"VEC3",
		"componentType":5126,
		"count":48,
		"byteOffset":12,
		"min":[-0.7873929142951965,
		-0.6164515018463135,
		-1.0],
		"max":[1.0,
		1.0,
		1.0]
	},
	{
		"bufferView":15,
		"type":"VEC2",
		"componentType":5126,
		"count":48,
		"byteOffset":24,
		"min":[0.0,
		0.0],
		"max":[1.0,
		1.0]
	},
	{
		"bufferView":16,
		"type":"SCALAR",
		"componentType":5123,
		"count":1140,
		"byteOffset":0,
		"min":[0],
		"max":[1139]
	},
	{
		"bufferView":17,
		"type":"VEC3",
		"componentType":5126,
		"count":1140,
		"byteOffset":0,
		"min":[-0.494550883769989,
		-0.5537610650062561,
		-0.494550883769989],
		"max":[0.26000940799713137,
		0.275984525680542,
		0.26000940799713137]
	},
	{
		"bufferView":17,
		"type":"VEC3",
		"componentType":5126,
		"count":1140,
		"byteOffset":12,
		"min":[-0.7071068286895752,
		-1.0,
		-0.7071068286895752],
		"max":[0.7071068286895752,
		1.0,
		0.7071068286895752]
	},
	{
		"bufferView":17,
		"type":"VEC2",
		"componentType":5126,
		"count":1140,
		"byteOffset":24,
		"min":[0.0,
		0.0],
		"max":[1.0,
		1.0]
	},
	{
		"bufferView":18,
		"type":"SCALAR",
		"componentType":5123,
		"count":408,
		"byteOffset":0,
		"min":[0],
		"max":[407]
	},
	{
		"bufferView":19,
		"type":"VEC3",
		"componentType":5126,
		"count":408,
		"byteOffset":0,
		"min":[-0.061844758689403537,
		-0.2479591965675354,
		-0.041238363832235339],
		"max":[0.061844758689403537,
		0.2479591965675354,
		0.041238363832235339]
	},
	{
		"bufferView":19,
		"type":"VEC3",
		"componentType":5126,
		"count":408,
		"byteOffset":12,
		"min":[-1.0,
		-0.9978627562522888,
		-1.0],
		"max":[1.0,
		0.9978627562522888,
		1.0]
	},
	{
		"bufferView":19,
		"type":"VEC2",
		"componentType":5126,
		"count":408,
		"byteOffset":24,
		"min":[0.0,
		0.0],
		"max":[1.0,
		1.0]
	},
	{
		"bufferView":20,
		"type":"SCALAR",
		"componentType":5123,
		"count":168,
		"byteOffset":0,
		"min":[0],
		"max":[167]
	},
	{
		"bufferView":21,
		"type":"VEC3",
		"componentType":5126,
		"count":168,
		"byteOffset":0,
		"min":[-1.0596327781677247,
		-0.5983316898345947,
		-0.02679755538702011],
		"max":[1.0596327781677247,
		0.5983316898345947,
		0.02679755538702011]
	},
	{
		"bufferView":21,
		"type":"VEC3",
		"componentType":5126,
		"count":168,
		"byteOffset":12,
		"min":[-0.8922794461250305,
		-1.0,
		-1.0],
		"max":[1.0,
		1.0,
		1.0]
	},
	{
		"bufferView":21,
		"type":"VEC2",
		"componentType":5126,
		"count":168,
		"byteOffset":24,
		"min":[0.0,
		0.0],
		"max":[1.0,
		1.0]
	}],
	"bufferViews":[{
		"buffer":0,
		"byteOffset":0,
		"byteLength":276,
		"target":34963
	},
	{
		"buffer":0,
		"byteOffset":276,
		"byteLength":4416,
		"target":34962,
		"byteStride":32
	},
	{
		"buffer":1,
		"byteOffset":0,
		"byteLength":3840,
		"target":34963
	},
	{
		"buffer":1,
		"byteOffset":3840,
		"byteLength":61440,
		"target":34962,
		"byteStride":32
	},
	{
		"buffer":2,
		"byteOffset":0,
		"byteLength":744,
		"target":34963
	},
	{
		"buffer":2,
		"byteOffset":744,
		"byteLength":11904,
		"target":34962,
		"byteStride":32
	},
	{
		"buffer":3,
		"byteOffset":0,
		"byteLength":96,
		"target":34963
	},
	{
		"buffer":3,
		"byteOffset":96,
		"byteLength":1536,
		"target":34962,
		"byteStride":32
	},
	{
		"buffer":4,
		"byteOffset":0,
		"byteLength":2280,
		"target":34963
	},
	{
		"buffer":4,
		"byteOffset":2280,
		"byteLength":36480,
		"target":34962,
		"byteStride":32
	},
	{
		"buffer":5,
		"byteOffset":0,
		"byteLength":816,
		"target":34963
	},
	{
		"buffer":5,
		"byteOffset":816,
		"byteLength":13056,
		"target":34962,
		"byteStride":32
	},
	{
		"buffer":6,
		"byteOffset":0,
		"byteLength":336,
		"target":34963
	},
	{
		"buffer":6,
		"byteOffset":336,
		"byteLength":5376,
		"target":34962,
		"byteStride":32
	},
	{
		"buffer":7,
		"byteOffset":0,
		"byteLength":96,
		"target":34963
	},
	{
		"buffer":7,
		"byteOffset":96,
		"byteLength":1536,
		"target":34962,
		"byteStride":32
	},
	{
		"buffer":8,
		"byteOffset":0,
		"byteLength":2280,
		"target":34963
	},
	{
		"buffer":8,
		"byteOffset":2280,
		"byteLength":36480,
		"target":34962,
		"byteStride":32
	},
	{
		"buffer":9,
		"byteOffset":0,
		"byteLength":816,
		"target":34963
	},
	{
		"buffer":9,
		"byteOffset":816,
		"byteLength":13056,
		"target":34962,
		"byteStride":32
	},
	{
		"buffer":10,
		"byteOffset":0,
		"byteLength":336,
		"target":34963
	},
	{
		"buffer":10,
		"byteOffset":336,
		"byteLength":5376,
		"target":34962,
		"byteStride":32
	}],
	"buffers":[{
		"uri":"data:application/octet-stream;base64,",
		"byteLength":4692
	},
	{
		"uri":"data:application/octet-stream;base64,",
		"byteLength":65280
	},
	{
		"uri":"data:application/octet-stream;base64,",
		"byteLength":12648
	},
	{
		"uri":"data:application/octet-stream;base64,",
		"byteLength":1632
	},
	{
		"uri":"data:application/octet-stream;base64,",
		"byteLength":38760
	},
	{
		"uri":"data:application/octet-stream;base64,",
		"byteLength":13872
	},
	{
		"uri":"data:application/octet-stream;base64,",
		"byteLength":5712
	},
	{
		"uri":"data:application/octet-stream;base64,",
		"byteLength":1632
	},
	{
		"uri":"data:application/octet-stream;base64,",
		"byteLength":38760
	},
	{
		"uri":"data:application/octet-stream;base64,",
		"byteLength":13872
	},
	{
		"uri":"data:application/octet-stream;base64,",
		"byteLength":5712
	}],
	"materials":[{
		"name":"COLOR HUECO LENTES",
		"pbrMetallicRoughness":{
			"baseColorFactor":[0.0,
			0.0,
			0.0,
			1.0],
			"metallicFactor":0.0,
			"roughnessFactor":0.17000000178813935
		},
		"emissiveFactor":[0.0,
		0.0,
		0.0],
		"alphaMode":"OPAQUE",
		"doubleSided":false
	},
	{
		"name":"VIDRIO 1",
		"pbrMetallicRoughness":{
			"baseColorFactor":[0.0,
			0.0,
			0.0,
			1.0],
			"metallicFactor":0.0,
			"roughnessFactor":0.0
		},
		"emissiveFactor":[0.0,
		0.0,
		0.0],
		"alphaMode":"OPAQUE",
		"doubleSided":false
	},
	{
		"name":"VIDRIO INTERIOR",
		"pbrMetallicRoughness":{
			"baseColorFactor":[0.8880000421777368,
			0.8880000421777368,
			0.8880000421777368,
			1.0],
			"metallicFactor":0.0,
			"roughnessFactor":0.0
		},
		"emissiveFactor":[0.0,
		0.0,
		0.0],
		"alphaMode":"OPAQUE",
		"doubleSided":false
	}]
}